<svg width="1441" height="1414" viewBox="0 0 1441 1414" fill="none" xmlns="http://www.w3.org/2000/svg">
<mask id="mask0_175_2124" style="mask-type:alpha" maskUnits="userSpaceOnUse" x="0" y="0" width="1441" height="1414">
<rect width="1441" height="1414" fill="#D79A9A"/>
</mask>
<g mask="url(#mask0_175_2124)">
<path fill-rule="evenodd" clip-rule="evenodd" d="M1255.57 287.406C1193.38 186.616 1081.95 119.442 954.826 119.442C759.802 119.442 601.703 277.54 601.703 472.564C601.703 496.035 603.993 518.971 608.361 541.161C575.147 487.327 555.982 423.903 555.982 356.002C555.982 160.978 714.081 2.87939 909.105 2.87939C1080.66 2.87939 1223.64 125.214 1255.57 287.406Z" fill="#C70F17"/>
<path fill-rule="evenodd" clip-rule="evenodd" d="M1230.86 398.385C1186.14 305.067 1095.52 236.408 985.062 224.665C815.61 206.652 663.639 329.416 645.625 498.868C643.458 519.26 643.328 539.399 645.074 559.081C621.188 509.238 610.395 452.361 616.666 393.364C634.68 223.913 786.651 101.148 956.103 119.162C1105.16 135.008 1218.1 254.51 1230.86 398.385Z" fill="#E01622"/>
<path fill-rule="evenodd" clip-rule="evenodd" d="M505.043 38.6676C390.026 66.9274 291.894 152.383 252.891 273.385C193.059 459.005 295.031 657.982 480.651 717.814C502.985 725.013 525.512 729.869 547.967 732.519C486.545 747.611 420.308 746.391 355.69 725.562C170.07 665.731 68.0986 466.753 127.93 281.134C180.562 117.847 340.871 19.2914 505.043 38.6676Z" fill="#E70012"/>
<path fill-rule="evenodd" clip-rule="evenodd" d="M603.105 96.2197C500.563 110.152 407.408 175.338 362.344 276.868C293.213 432.622 363.434 614.927 519.188 684.059C537.927 692.376 557.05 698.676 576.313 703.052C521.55 710.493 464.108 703.315 409.885 679.249C254.131 610.117 183.909 427.812 253.04 272.058C313.854 135.043 462.249 64.217 603.105 96.2197Z" fill="#F2001B"/>
<path fill-rule="evenodd" clip-rule="evenodd" d="M706.945 865.334C696.729 885.494 684.419 904.962 669.979 923.444C549.905 1077.12 327.985 1104.36 174.308 984.288C74.1219 906.009 27.6721 784.445 40.7433 666.722C-33.9842 814.194 3.35748 998.649 138.553 1104.28C292.23 1224.36 514.15 1197.12 634.224 1043.44C676.019 989.948 699.966 928.188 706.945 865.334Z" fill="#EF7D00"/>
<path fill-rule="evenodd" clip-rule="evenodd" d="M128.52 594.519C106.304 695.588 135.437 805.485 215.246 882.745C337.681 1001.27 533.018 998.098 651.542 875.663C665.805 860.928 678.307 845.138 689.05 828.553C677.184 882.534 650.67 933.997 609.406 976.623C490.882 1099.06 295.545 1102.23 173.11 983.705C65.4087 879.445 49.9939 715.748 128.52 594.519Z" fill="#F5A601"/>
<path fill-rule="evenodd" clip-rule="evenodd" d="M509.681 1320.18C619.881 1363.59 749.359 1350.56 851.121 1274.35C1007.22 1157.44 1038.99 936.125 922.085 780.025C908.022 761.248 892.448 744.27 875.659 729.132C934.502 752.313 987.848 791.586 1028.54 845.924C1145.45 1002.02 1113.68 1223.34 957.579 1340.25C820.257 1443.09 632.464 1430.88 509.681 1320.18Z" fill="#F7B500"/>
<path fill-rule="evenodd" clip-rule="evenodd" d="M835.478 736.786C848.676 751.495 860.646 767.693 871.136 785.317C958.296 931.747 910.248 1121.11 763.819 1208.27C668.375 1265.08 554.692 1264.45 462.959 1216.57C559.419 1324.07 721.445 1352.03 850.251 1275.36C996.68 1188.2 1044.73 998.835 957.568 852.405C927.22 801.42 884.481 762.361 835.478 736.786Z" fill="#FBD301"/>
<path fill-rule="evenodd" clip-rule="evenodd" d="M798.281 552.302C817.269 540.03 837.719 529.411 859.512 520.719C1040.66 448.476 1246.08 536.763 1318.32 717.913C1365.42 836.001 1344.29 964.4 1273.7 1059.5C1412.54 969.763 1473.21 791.628 1409.66 632.272C1337.42 451.121 1132 362.835 950.852 435.078C887.789 460.228 835.981 501.516 798.281 552.302Z" fill="#89428E"/>
<path fill-rule="evenodd" clip-rule="evenodd" d="M1161.51 1077.66C1231.63 1001.56 1261.84 891.947 1231.83 784.997C1185.79 620.928 1015.46 525.244 851.395 571.282C831.651 576.822 812.897 584.163 795.261 593.075C832.709 552.427 881.54 521.335 938.66 505.308C1102.73 459.269 1273.06 554.953 1319.09 719.023C1359.59 863.348 1290.43 1012.52 1161.51 1077.66Z" fill="#B260B5"/>
</g>
</svg>
